<svg fill="none" height="48" viewBox="0 0 48 48" width="48" xmlns="http://www.w3.org/2000/svg"><path d="m0 0h48v48h-48z" fill="#fff" fill-opacity=".01"/><g stroke-linecap="round" stroke-linejoin="round" stroke-width="4"><path d="m33.6961 40.8677 5.3039-23.8677h-32l5.3039 23.8677c.3337 1.5017.5006 2.2525 1.049 2.6924s1.3175.4399 2.8558.4399h13.5826c1.5383 0 2.3074 0 2.8558-.4399s.7153-1.1907 1.049-2.6924z" fill="#2f88ff" stroke="#000"/><path d="m27 44 1-27" stroke="#fff"/><path d="m19 44-1-27" stroke="#fff"/><path d="m31 44h-16" stroke="#000"/><path d="m31 17h-16" stroke="#000"/><path d="m11 17s-1.00001-3 .5-4.5c1.5-1.5 4.5-1 4.5-1s0-3.00004 2-4.00004 5 .49998 5 .49998 2-3.35716 5-2.49996c3 .85721 3 4.50002 3 4.50002s2.5 0 4 2 0 5 0 5" stroke="#000"/></g></svg>